<svg xmlns="http://www.w3.org/2000/svg" width="1440" height="548" viewBox="0 0 1440 548" fill="none">
  <defs>
    <linearGradient id="sky" x1="720" y1="0" x2="720" y2="548" gradientUnits="userSpaceOnUse">
      <stop stop-color="#52719A"/>
      <stop offset=".42" stop-color="#223D67"/>
      <stop offset="1" stop-color="#07142B"/>
    </linearGradient>
    <linearGradient id="grass" x1="720" y1="260" x2="720" y2="548" gradientUnits="userSpaceOnUse">
      <stop stop-color="#658C38"/>
      <stop offset=".52" stop-color="#274F26"/>
      <stop offset="1" stop-color="#102816"/>
    </linearGradient>
    <filter id="soft" x="-20%" y="-20%" width="140%" height="140%">
      <feGaussianBlur stdDeviation="10"/>
    </filter>
  </defs>
  <rect width="1440" height="548" fill="url(#sky)"/>
  <path d="M0 143C210 98 436 79 720 79C1004 79 1230 98 1440 143V248C1212 206 992 188 720 188C448 188 228 206 0 248V143Z" fill="#D7DDE7"/>
  <path d="M0 160C229 121 454 104 720 104C986 104 1211 121 1440 160V226C1214 188 987 171 720 171C453 171 226 188 0 226V160Z" fill="#182C58"/>
  <path d="M0 225C220 183 458 166 720 166C982 166 1220 183 1440 225V330C1175 291 947 276 720 276C493 276 265 291 0 330V225Z" fill="#C96A18"/>
  <path d="M218 190L314 154L409 194L506 151L604 190L700 151L797 190L897 151L995 194L1092 154L1187 190V227H218V190Z" fill="#F2A51E" opacity=".78"/>
  <path d="M0 310C234 279 471 265 720 265C969 265 1206 279 1440 310V548H0V310Z" fill="url(#grass)"/>
  <ellipse cx="720" cy="360" rx="360" ry="102" fill="#3F6E2E" opacity=".62"/>
  <ellipse cx="720" cy="378" rx="116" ry="35" fill="#B58A3A" opacity=".54"/>
  <path d="M360 312C420 398 441 463 450 548M488 285C526 385 547 461 555 548M620 270C635 376 647 463 650 548M820 270C805 376 793 463 790 548M952 285C914 385 893 461 885 548M1080 312C1020 398 999 463 990 548" stroke="#17391B" stroke-width="4" opacity=".34"/>
  <g filter="url(#soft)" opacity=".35">
    <path d="M92 52C196 23 291 28 383 58" stroke="#9CB9DB" stroke-width="34" stroke-linecap="round"/>
    <path d="M984 54C1102 20 1213 25 1348 62" stroke="#9CB9DB" stroke-width="34" stroke-linecap="round"/>
  </g>
  <path d="M0 448H180L205 548H0V448Z" fill="#030A18" opacity=".75"/>
  <path d="M1440 448H1260L1235 548H1440V448Z" fill="#030A18" opacity=".75"/>
  <rect x="606" y="147" width="230" height="54" rx="5" fill="#D7DDE7"/>
  <rect x="632" y="161" width="74" height="12" fill="#1F2F4E"/>
  <rect x="733" y="161" width="74" height="12" fill="#1F2F4E"/>
  <rect x="672" y="195" width="100" height="25" fill="#0D1730"/>
  <rect width="1440" height="548" fill="#04102A" opacity=".35"/>
</svg>
